name D:\school\WTK\thesis\model\3dpredictsim\Results\MidTarsalJoint\Fal_s1_bCst_PF_Natali2010_ls150_MT_k400_d010_MTP_T5_ig23.mot
datacolumns 128
datarows 4
range 1.13532565 1.16938542
endheader
time	pelvis_tilt	pelvis_list	pelvis_rotation	pelvis_tx	pelvis_ty	pelvis_tz	hip_flexion_l	hip_adduction_l	hip_rotation_l	hip_flexion_r	hip_adduction_r	hip_rotation_r	knee_angle_l	knee_angle_r	ankle_angle_l	ankle_angle_r	subtalar_angle_l	subtalar_angle_r	mtj_angle_l	mtj_angle_r	mtp_angle_l	mtp_angle_r	lumbar_extension	lumbar_bending	lumbar_rotation	arm_flex_l	arm_add_l	arm_rot_l	arm_flex_r	arm_add_r	arm_rot_r	elbow_flex_l	elbow_flex_r	pro_sup_l	pro_sup_r	glut_med1_l/activation	glut_med2_l/activation	glut_med3_l/activation	glut_min1_l/activation	glut_min2_l/activation	glut_min3_l/activation	semimem_l/activation	semiten_l/activation	bifemlh_l/activation	bifemsh_l/activation	sar_l/activation	add_long_l/activation	add_brev_l/activation	add_mag1_l/activation	add_mag2_l/activation	add_mag3_l/activation	tfl_l/activation	pect_l/activation	grac_l/activation	glut_max1_l/activation	glut_max2_l/activation	glut_max3_l/activation	iliacus_l/activation	psoas_l/activation	quad_fem_l/activation	gem_l/activation	peri_l/activation	rect_fem_l/activation	vas_med_l/activation	vas_int_l/activation	vas_lat_l/activation	med_gas_l/activation	lat_gas_l/activation	soleus_l/activation	tib_post_l/activation	flex_dig_l/activation	flex_hal_l/activation	tib_ant_l/activation	per_brev_l/activation	per_long_l/activation	per_tert_l/activation	ext_dig_l/activation	ext_hal_l/activation	ercspn_l/activation	intobl_l/activation	extobl_l/activation	glut_med1_r/activation	glut_med2_r/activation	glut_med3_r/activation	glut_min1_r/activation	glut_min2_r/activation	glut_min3_r/activation	semimem_r/activation	semiten_r/activation	bifemlh_r/activation	bifemsh_r/activation	sar_r/activation	add_long_r/activation	add_brev_r/activation	add_mag1_r/activation	add_mag2_r/activation	add_mag3_r/activation	tfl_r/activation	pect_r/activation	grac_r/activation	glut_max1_r/activation	glut_max2_r/activation	glut_max3_r/activation	iliacus_r/activation	psoas_r/activation	quad_fem_r/activation	gem_r/activation	peri_r/activation	rect_fem_r/activation	vas_med_r/activation	vas_int_r/activation	vas_lat_r/activation	med_gas_r/activation	lat_gas_r/activation	soleus_r/activation	tib_post_r/activation	flex_dig_r/activation	flex_hal_r/activation	tib_ant_r/activation	per_brev_r/activation	per_long_r/activation	per_tert_r/activation	ext_dig_r/activation	ext_hal_r/activation	ercspn_r/activation	intobl_r/activation	extobl_r/activation	
          1.13532565	         -2.92636574	         -2.26458519	          5.69939691	          1.41915707	          0.91822482	         -0.00119574	        -16.69067935	         -1.63100752	          6.48685127	         28.67847974	          3.89968284	         -1.71925096	        -10.67042807	        -12.19445806	         -2.74637027	          4.72200122	         10.85883162	         -4.65334173	          2.67167135	         -0.01443475	         16.20223849	         -0.86401083	         -1.82176936	          0.59517868	         -2.12806890	          5.10598772	        -13.47757256	         18.20318773	         -4.92938285	        -13.46218672	         10.30567524	         34.46570567	         13.55331315	         86.51662706	         86.51662706	          0.22860683	          0.08409259	          0.05946094	          0.25453079	          0.16722782	          0.08681897	          0.05000057	          0.05000012	          0.05000018	          0.05000002	          0.08528583	          0.19475878	          0.06517267	          0.07071157	          0.05946132	          0.05946112	          0.25037317	          0.10000438	          0.05000233	          0.05000077	          0.05000063	          0.05000214	          0.29949350	          0.54080230	          0.05234170	          0.05946131	          0.05946107	          0.17272559	          0.09824938	          0.16374089	          0.14144025	          0.22738776	          0.31070957	          0.26385687	          0.21753313	          0.20760337	          0.27622786	          0.05000000	          0.05000002	          0.13601715	          0.05000001	          0.05000000	          0.05000002	          0.06128572	          0.06158059	          0.05946105	          0.05000000	          0.05000001	          0.10844900	          0.05000001	          0.05000001	          0.05000001	          0.07636642	          0.05000004	          0.16893319	          0.05000002	          0.05000030	          0.10751619	          0.25917570	          0.32851694	          0.21262445	          0.11778639	          0.05000016	          0.07071139	          0.12509411	          0.07359883	          0.09007210	          0.12129268	          0.05000001	          0.05000026	          0.42384746	          0.21282399	          0.11154200	          0.05946184	          0.16963613	          0.16991013	          0.14533850	          0.05000009	          0.05000085	          0.05000000	          0.05946110	          0.05000067	          0.05946105	          0.48251453	          0.29340894	          0.19761317	          0.22655827	          0.44670251	          0.19837106	          0.05000000	          0.09278650	          0.08409256	
          1.14667891	         -2.91847563	         -2.35143131	          5.93430188	          1.43669471	          0.91732089	         -0.00100771	        -16.45418454	         -1.92227927	          6.26653712	         27.84050204	          4.16365470	         -1.45105606	        -12.74509283	        -12.59020506	         -3.58415260	          4.22746312	         11.79067616	         -5.06280101	          1.82379264	         -0.17820296	         17.78020960	         -0.88514319	         -1.59909511	          0.81114977	         -2.18592651	          4.65995739	        -13.49239709	         18.30484529	         -5.87360685	        -13.47298231	         10.11114848	         35.71789848	         13.30663008	         86.51662706	         86.51662706	          0.34456023	          0.07071234	          0.05000006	          0.31148545	          0.14061966	          0.07300492	          0.05000037	          0.05000004	          0.05000003	          0.05000008	          0.07171586	          0.16377008	          0.05480288	          0.05946045	          0.05000036	          0.05000012	          0.22907328	          0.08409255	          0.05000035	          0.05000066	          0.05000034	          0.05000015	          0.25184011	          0.50723033	          0.05000006	          0.05000034	          0.05000006	          0.14524265	          0.08261661	          0.13768755	          0.11893524	          0.19120733	          0.26127153	          0.22187372	          0.18292071	          0.17457092	          0.23227634	          0.05000005	          0.08020399	          0.16747242	          0.05000004	          0.09010524	          0.05000009	          0.05857920	          0.05178230	          0.05000001	          0.24276839	          0.25104305	          0.31174669	          0.37814505	          0.22529080	          0.19864477	          0.08020508	          0.06592965	          0.14585514	          0.08409248	          0.05000821	          0.09040894	          0.21793740	          0.27624553	          0.17879309	          0.11872323	          0.05000007	          0.05946114	          0.10519028	          0.14693622	          0.11190002	          0.10199342	          0.05577437	          0.05000012	          0.35640768	          0.17896088	          0.24487370	          0.05000067	          0.14264477	          0.14287518	          0.12221322	          0.05000011	          0.05000024	          0.05159649	          0.05000006	          0.05000007	          0.05000011	          0.57342257	          0.34310733	          0.18120509	          0.38074457	          0.52033232	          0.23317464	          0.06571233	          0.10921901	          0.07071232	
          1.15803217	         -2.90854528	         -2.42972718	          6.13398887	          1.45427890	          0.91646186	         -0.00079875	        -16.10870901	         -2.19782746	          6.05766388	         26.95165253	          4.40682570	         -1.18298353	        -14.96862191	        -12.94758350	         -4.55689021	          3.79050447	         12.66853369	         -5.48209012	          0.91066982	         -0.12894341	         19.19646708	         -0.85599590	         -1.38134234	          1.02512506	         -2.23396121	          4.17453443	        -13.51337329	         18.35075686	         -6.79148923	        -13.48441093	          9.96897511	         36.94070347	         13.08413797	         86.51662706	         86.51662706	          0.28973614	          0.05946107	          0.05000000	          0.26192402	          0.11824521	          0.06138888	          0.05000031	          0.05000002	          0.05000002	          0.05000001	          0.06030496	          0.17384485	          0.11209325	          0.05000022	          0.05000085	          0.05001379	          0.19262473	          0.07071255	          0.05000009	          0.05000033	          0.05000022	          0.05000016	          0.21176900	          0.45666995	          0.05000002	          0.05000008	          0.05000002	          0.12213260	          0.11752812	          0.11578001	          0.10001120	          0.16078369	          0.21969974	          0.18657064	          0.15381559	          0.14679438	          0.19531809	          0.12290732	          0.14773908	          0.14577004	          0.05478263	          0.17121286	          0.05000069	          0.08713727	          0.05000000	          0.05000000	          0.34649395	          0.35276545	          0.38715770	          0.31797717	          0.18944417	          0.22998292	          0.07698318	          0.09860939	          0.12264792	          0.07071228	          0.05000008	          0.07602368	          0.18326066	          0.23229130	          0.19668983	          0.16242490	          0.05000005	          0.05000073	          0.10086608	          0.23766457	          0.18154917	          0.15951271	          0.05000001	          0.05000001	          0.29969847	          0.15048583	          0.20591126	          0.05000000	          0.16813219	          0.18022815	          0.13667910	          0.05000000	          0.05000000	          0.05000000	          0.05000000	          0.05000002	          0.05000001	          0.63886037	          0.28851442	          0.15237297	          0.58409901	          0.55434966	          0.33688837	          0.08484038	          0.09184081	          0.05946104	
          1.16938542	         -2.89719429	         -2.50275394	          6.29945480	          1.47169337	          0.91571376	         -0.00056276	        -15.62026359	         -2.45337602	          5.85750226	         26.11724723	          4.65784550	         -0.91349852	        -17.37699430	        -13.36943766	         -5.60586045	          3.28612970	         13.47357151	         -5.89637509	         -0.00408440	         -0.15801452	         20.13041732	         -0.85654121	         -1.18477426	          1.24087543	         -2.27368037	          3.69638633	        -13.53527060	         18.37323728	         -7.63994741	        -13.49531139	          9.87867674	         38.08685608	         12.86248099	         86.51662706	         86.51662706	          0.24363527	          0.05000005	          0.05000001	          0.22024844	          0.09943084	          0.05162111	          0.05000313	          0.05000055	          0.05000167	          0.05000004	          0.05070970	          0.18007855	          0.13755989	          0.16070666	          0.05000172	          0.11892669	          0.16197568	          0.05946139	          0.05000022	          0.05000038	          0.05000026	          0.05000017	          0.17807373	          0.40467028	          0.05000002	          0.05000011	          0.05000003	          0.10269968	          0.09882784	          0.09735788	          0.08409809	          0.13520086	          0.18474258	          0.15688476	          0.12934149	          0.12343749	          0.16424041	          0.20007848	          0.12423187	          0.12257611	          0.18849301	          0.22340094	          0.10475573	          0.11465824	          0.05000000	          0.05000000	          0.45110119	          0.46251621	          0.48447042	          0.26738315	          0.28126886	          0.34051365	          0.07083405	          0.09967183	          0.10319451	          0.05946103	          0.05000005	          0.06392730	          0.15410146	          0.19536059	          0.23692235	          0.18751319	          0.05000004	          0.05000045	          0.08481708	          0.30398330	          0.23010377	          0.19911608	          0.05000001	          0.05000001	          0.25201246	          0.12654155	          0.20046151	          0.05000000	          0.27376273	          0.28020237	          0.22794305	          0.05000000	          0.05000001	          0.05000000	          0.09495024	          0.05000140	          0.05000027	          0.72219083	          0.24260792	          0.12812840	          0.49116108	          0.53977194	          0.36780438	          0.09755541	          0.07722771	          0.05000001	
